<svg fill="#fafafa" width="71px" height="71px" viewBox="-17.76 -17.76 59.52 59.52" id="curve-arrow-down-circle-2" data-name="Flat Color" xmlns="http://www.w3.org/2000/svg" class="icon flat-color" stroke="#fafafa" stroke-width="0.00024000000000000003">

<g id="SVGRepo_bgCarrier" stroke-width="0"/>

<g id="SVGRepo_tracerCarrier" stroke-linecap="round" stroke-linejoin="round"/>

<g id="SVGRepo_iconCarrier">

<circle id="primary" cx="12" cy="12" r="10" style="fill: #1a1c61;"/>

<path id="secondary" d="M15.84,7.46a1,1,0,0,0-1.38-.3,14.24,14.24,0,0,0-5,6.3l-.58-1.07a1,1,0,1,0-1.76.95l1.69,3.13a1,1,0,0,0,.88.53.94.94,0,0,0,.43-.1l3.3-1.59A1,1,0,0,0,13.89,14a1,1,0,0,0-1.34-.47l-1.18.57a12.42,12.42,0,0,1,4.17-5.24A1,1,0,0,0,15.84,7.46Z" style="fill: #a8e6f0;"/>

</g>

</svg>
